<svg xmlns="http://www.w3.org/2000/svg" xmlns:xlink="http://www.w3.org/1999/xlink" width="300" zoomAndPan="magnify" viewBox="0 0 224.87999 74.999997" height="100" preserveAspectRatio="xMidYMid meet" version="1.2"><defs/><g id="9b82973956"><g style="fill:#ffffff;fill-opacity:1;"><g transform="translate(4.37278, 60.165007)"><path style="stroke:none" d="M 23.578125 -41.78125 C 28.984375 -41.78125 33.078125 -40.566406 35.859375 -38.140625 C 38.640625 -35.710938 40.03125 -32.210938 40.03125 -27.640625 C 40.03125 -23.054688 38.640625 -19.546875 35.859375 -17.109375 C 33.078125 -14.671875 28.984375 -13.453125 23.578125 -13.453125 L 18.3125 -13.453125 L 18.3125 -7.21875 L 25.9375 -7.21875 C 26.5 -7.21875 26.929688 -7.117188 27.234375 -6.921875 C 27.546875 -6.722656 27.773438 -6.363281 27.921875 -5.84375 C 28.078125 -5.320312 28.15625 -4.570312 28.15625 -3.59375 C 28.15625 -2.601562 28.078125 -1.847656 27.921875 -1.328125 C 27.773438 -0.816406 27.546875 -0.46875 27.234375 -0.28125 C 26.929688 -0.09375 26.5 0 25.9375 0 L 4.328125 0 C 3.765625 0 3.328125 -0.09375 3.015625 -0.28125 C 2.710938 -0.46875 2.484375 -0.816406 2.328125 -1.328125 C 2.179688 -1.847656 2.109375 -2.601562 2.109375 -3.59375 C 2.109375 -4.570312 2.179688 -5.320312 2.328125 -5.84375 C 2.484375 -6.363281 2.710938 -6.722656 3.015625 -6.921875 C 3.328125 -7.117188 3.765625 -7.21875 4.328125 -7.21875 L 9.5 -7.21875 L 9.5 -34.5625 L 4.328125 -34.5625 C 3.765625 -34.5625 3.328125 -34.65625 3.015625 -34.84375 C 2.710938 -35.03125 2.484375 -35.382812 2.328125 -35.90625 C 2.179688 -36.425781 2.109375 -37.175781 2.109375 -38.15625 C 2.109375 -39.144531 2.179688 -39.894531 2.328125 -40.40625 C 2.484375 -40.925781 2.710938 -41.285156 3.015625 -41.484375 C 3.328125 -41.679688 3.765625 -41.78125 4.328125 -41.78125 Z M 18.3125 -21.015625 L 22.5 -21.015625 C 25.289062 -21.015625 27.394531 -21.550781 28.8125 -22.625 C 30.226562 -23.707031 30.9375 -25.378906 30.9375 -27.640625 C 30.9375 -29.890625 30.226562 -31.546875 28.8125 -32.609375 C 27.394531 -33.679688 25.289062 -34.21875 22.5 -34.21875 L 18.3125 -34.21875 Z M 18.3125 -21.015625 "/></g></g><g style="fill:#ffffff;fill-opacity:1;"><g transform="translate(47.598886, 60.165007)"><path style="stroke:none" d="M 24.296875 -32.53125 C 25.085938 -32.53125 25.648438 -32.359375 25.984375 -32.015625 C 26.328125 -31.671875 26.5 -31.101562 26.5 -30.3125 L 26.5 -7.21875 L 36.40625 -7.21875 C 36.96875 -7.21875 37.398438 -7.117188 37.703125 -6.921875 C 38.003906 -6.722656 38.226562 -6.363281 38.375 -5.84375 C 38.53125 -5.320312 38.609375 -4.570312 38.609375 -3.59375 C 38.609375 -2.601562 38.53125 -1.847656 38.375 -1.328125 C 38.226562 -0.816406 38.003906 -0.46875 37.703125 -0.28125 C 37.398438 -0.09375 36.96875 0 36.40625 0 L 8.09375 0 C 7.53125 0 7.097656 -0.09375 6.796875 -0.28125 C 6.492188 -0.46875 6.265625 -0.816406 6.109375 -1.328125 C 5.953125 -1.847656 5.875 -2.601562 5.875 -3.59375 C 5.875 -4.570312 5.953125 -5.320312 6.109375 -5.84375 C 6.265625 -6.363281 6.492188 -6.722656 6.796875 -6.921875 C 7.097656 -7.117188 7.53125 -7.21875 8.09375 -7.21875 L 17.703125 -7.21875 L 17.703125 -25.3125 L 10.203125 -25.3125 C 9.640625 -25.3125 9.207031 -25.40625 8.90625 -25.59375 C 8.601562 -25.78125 8.375 -26.128906 8.21875 -26.640625 C 8.0625 -27.160156 7.984375 -27.914062 7.984375 -28.90625 C 7.984375 -29.882812 8.0625 -30.628906 8.21875 -31.140625 C 8.375 -31.660156 8.601562 -32.019531 8.90625 -32.21875 C 9.207031 -32.425781 9.640625 -32.53125 10.203125 -32.53125 Z M 22.015625 -47.984375 C 23.671875 -47.984375 24.832031 -47.8125 25.5 -47.46875 C 26.175781 -47.125 26.515625 -46.554688 26.515625 -45.765625 L 26.515625 -39.984375 C 26.515625 -39.191406 26.203125 -38.625 25.578125 -38.28125 C 24.960938 -37.9375 23.832031 -37.765625 22.1875 -37.765625 C 20.539062 -37.765625 19.382812 -37.9375 18.71875 -38.28125 C 18.050781 -38.625 17.71875 -39.191406 17.71875 -39.984375 L 17.71875 -45.765625 C 17.71875 -46.585938 18.019531 -47.160156 18.625 -47.484375 C 19.238281 -47.816406 20.367188 -47.984375 22.015625 -47.984375 Z M 22.015625 -47.984375 "/></g></g><g style="fill:#ffffff;fill-opacity:1;"><g transform="translate(90.824992, 60.165007)"><path style="stroke:none" d="M 23.9375 -46.1875 C 24.738281 -46.1875 25.304688 -46.015625 25.640625 -45.671875 C 25.984375 -45.335938 26.15625 -44.769531 26.15625 -43.96875 L 26.15625 -7.21875 L 36.046875 -7.21875 C 36.609375 -7.21875 37.039062 -7.117188 37.34375 -6.921875 C 37.65625 -6.722656 37.882812 -6.363281 38.03125 -5.84375 C 38.1875 -5.320312 38.265625 -4.570312 38.265625 -3.59375 C 38.265625 -2.601562 38.1875 -1.847656 38.03125 -1.328125 C 37.882812 -0.816406 37.65625 -0.46875 37.34375 -0.28125 C 37.039062 -0.09375 36.609375 0 36.046875 0 L 7.75 0 C 7.1875 0 6.75 -0.09375 6.4375 -0.28125 C 6.132812 -0.46875 5.90625 -0.816406 5.75 -1.328125 C 5.601562 -1.847656 5.53125 -2.601562 5.53125 -3.59375 C 5.53125 -4.570312 5.601562 -5.320312 5.75 -5.84375 C 5.90625 -6.363281 6.132812 -6.722656 6.4375 -6.921875 C 6.75 -7.117188 7.1875 -7.21875 7.75 -7.21875 L 17.359375 -7.21875 L 17.359375 -38.96875 L 9.15625 -38.96875 C 8.59375 -38.96875 8.15625 -39.0625 7.84375 -39.25 C 7.539062 -39.4375 7.3125 -39.785156 7.15625 -40.296875 C 7.007812 -40.816406 6.9375 -41.570312 6.9375 -42.5625 C 6.9375 -43.539062 7.007812 -44.289062 7.15625 -44.8125 C 7.3125 -45.332031 7.539062 -45.691406 7.84375 -45.890625 C 8.15625 -46.085938 8.59375 -46.1875 9.15625 -46.1875 Z M 23.9375 -46.1875 "/></g></g><g style="fill:#ffffff;fill-opacity:1;"><g transform="translate(134.051098, 60.165007)"><path style="stroke:none" d="M 21.609375 -33.296875 C 25.179688 -33.296875 28.300781 -32.566406 30.96875 -31.109375 C 33.644531 -29.660156 35.707031 -27.644531 37.15625 -25.0625 C 38.601562 -22.476562 39.328125 -19.546875 39.328125 -16.265625 C 39.328125 -12.972656 38.601562 -10.035156 37.15625 -7.453125 C 35.707031 -4.878906 33.644531 -2.863281 30.96875 -1.40625 C 28.300781 0.0507812 25.179688 0.78125 21.609375 0.78125 C 18.046875 0.78125 14.925781 0.0507812 12.25 -1.40625 C 9.570312 -2.863281 7.507812 -4.878906 6.0625 -7.453125 C 4.625 -10.035156 3.90625 -12.972656 3.90625 -16.265625 C 3.90625 -19.546875 4.625 -22.476562 6.0625 -25.0625 C 7.507812 -27.644531 9.570312 -29.660156 12.25 -31.109375 C 14.925781 -32.566406 18.046875 -33.296875 21.609375 -33.296875 Z M 21.609375 -25.3125 C 19.921875 -25.3125 18.453125 -24.941406 17.203125 -24.203125 C 15.960938 -23.460938 15.007812 -22.410156 14.34375 -21.046875 C 13.675781 -19.691406 13.34375 -18.097656 13.34375 -16.265625 C 13.34375 -14.429688 13.675781 -12.832031 14.34375 -11.46875 C 15.007812 -10.113281 15.960938 -9.066406 17.203125 -8.328125 C 18.453125 -7.585938 19.921875 -7.21875 21.609375 -7.21875 C 23.304688 -7.21875 24.773438 -7.585938 26.015625 -8.328125 C 27.253906 -9.066406 28.207031 -10.113281 28.875 -11.46875 C 29.550781 -12.832031 29.890625 -14.429688 29.890625 -16.265625 C 29.890625 -18.097656 29.550781 -19.691406 28.875 -21.046875 C 28.207031 -22.410156 27.253906 -23.460938 26.015625 -24.203125 C 24.773438 -24.941406 23.304688 -25.3125 21.609375 -25.3125 Z M 21.609375 -25.3125 "/></g></g><g style="fill:#ffffff;fill-opacity:1;"><g transform="translate(177.277204, 60.165007)"><path style="stroke:none" d="M 17.078125 -42.5625 C 18.179688 -42.5625 19.03125 -42.484375 19.625 -42.328125 C 20.21875 -42.179688 20.632812 -41.953125 20.875 -41.640625 C 21.113281 -41.335938 21.234375 -40.90625 21.234375 -40.34375 L 21.234375 -30.421875 L 34.28125 -30.421875 C 35.101562 -30.421875 35.675781 -30.148438 36 -29.609375 C 36.332031 -29.066406 36.5 -28.066406 36.5 -26.609375 C 36.5 -25.160156 36.332031 -24.171875 36 -23.640625 C 35.675781 -23.109375 35.101562 -22.84375 34.28125 -22.84375 L 21.234375 -22.84375 L 21.234375 -13.0625 C 21.234375 -9.164062 22.742188 -7.21875 25.765625 -7.21875 C 26.847656 -7.21875 28.109375 -7.457031 29.546875 -7.9375 C 30.992188 -8.414062 32.679688 -9.09375 34.609375 -9.96875 C 35.117188 -10.175781 35.523438 -10.28125 35.828125 -10.28125 C 36.328125 -10.28125 36.785156 -10.070312 37.203125 -9.65625 C 37.628906 -9.25 38.03125 -8.578125 38.40625 -7.640625 C 38.820312 -6.585938 39.03125 -5.726562 39.03125 -5.0625 C 39.03125 -4.550781 38.90625 -4.125 38.65625 -3.78125 C 38.414062 -3.445312 38.050781 -3.148438 37.5625 -2.890625 C 32.726562 -0.441406 28.539062 0.78125 25 0.78125 C 20.914062 0.78125 17.796875 -0.359375 15.640625 -2.640625 C 13.492188 -4.921875 12.421875 -8.242188 12.421875 -12.609375 L 12.421875 -22.84375 L 5.625 -22.84375 C 4.8125 -22.84375 4.238281 -23.109375 3.90625 -23.640625 C 3.582031 -24.171875 3.421875 -25.160156 3.421875 -26.609375 C 3.421875 -28.066406 3.582031 -29.066406 3.90625 -29.609375 C 4.238281 -30.148438 4.8125 -30.421875 5.625 -30.421875 L 12.421875 -30.421875 L 12.421875 -40.34375 C 12.421875 -41.132812 12.78125 -41.703125 13.5 -42.046875 C 14.21875 -42.390625 15.410156 -42.5625 17.078125 -42.5625 Z M 17.078125 -42.5625 "/></g></g></g></svg>