<svg xmlns="http://www.w3.org/2000/svg" xmlns:xlink="http://www.w3.org/1999/xlink" width="350" zoomAndPan="magnify" viewBox="0 0 262.5 374.999991" height="500" preserveAspectRatio="xMidYMid meet" version="1.2"><defs><clipPath id="77d6bc98d7"><path d="M 130.980469 0.355469 L 261.980469 0.355469 L 261.980469 250 L 130.980469 250 Z M 130.980469 0.355469 "/></clipPath><clipPath id="7d0b453547"><path d="M 254.960938 83.570312 C 259.199219 96.320312 261.980469 110.90625 261.980469 125.179688 C 261.980469 139.453125 259.597656 153.191406 255.359375 165.847656 C 255.226562 166.117188 255.226562 166.386719 255.09375 166.65625 C 238.132812 214.191406 193.351562 249.203125 144.753906 249.875 L 130.980469 249.875 L 130.980469 0.351562 L 144.746094 0.351562 C 193.617188 1.023438 238.398438 35.496094 254.960938 83.570312 Z M 254.960938 83.570312 "/></clipPath><clipPath id="8f21bc1e13"><path d="M 0 125.113281 L 130.980469 125.113281 L 130.980469 374.640625 L 0 374.640625 Z M 0 125.113281 "/></clipPath><clipPath id="651e935b11"><path d="M 7.003906 208.332031 C 2.761719 221.125 -0.0195312 235.667969 -0.0195312 249.941406 C -0.0195312 264.214844 2.367188 277.953125 6.605469 290.609375 C 6.738281 290.878906 6.738281 291.148438 6.871094 291.417969 C 23.832031 338.953125 68.613281 373.964844 117.210938 374.636719 L 130.980469 374.636719 L 130.980469 125.113281 L 117.21875 125.113281 C 68.347656 125.785156 23.566406 160.257812 7.003906 208.332031 Z M 7.003906 208.332031 "/></clipPath></defs><g id="1fc08da2b2"><g clip-rule="nonzero" clip-path="url(#77d6bc98d7)"><g clip-rule="nonzero" clip-path="url(#7d0b453547)"><path style=" stroke:none;fill-rule:nonzero;fill:#ff6b6b;fill-opacity:1;" d="M 261.980469 0.351562 L 261.980469 250.070312 L 130.980469 250.070312 L 130.980469 0.351562 Z M 261.980469 0.351562 "/></g></g><g clip-rule="nonzero" clip-path="url(#8f21bc1e13)"><g clip-rule="nonzero" clip-path="url(#651e935b11)"><path style=" stroke:none;fill-rule:nonzero;fill:#ff6b6b;fill-opacity:1;" d="M 130.980469 125.113281 L 130.980469 374.832031 L -0.0195312 374.832031 L -0.0195312 125.113281 Z M 130.980469 125.113281 "/></g></g></g></svg>